<?xml version="1.0" encoding="UTF-8"?>
<svg xmlns="http://www.w3.org/2000/svg" xmlns:xlink="http://www.w3.org/1999/xlink" width="127px" height="60px" viewBox="0 0 127 60" version="1.1">
<g id="surface1">
<path style=" stroke:none;fill-rule:nonzero;fill:rgb(10.588235%,22.352941%,79.215686%);fill-opacity:1;" d="M 7.59375 20.359375 C 7.59375 20.078125 7.664062 20.007812 7.941406 20.007812 L 20.507812 20.023438 C 22.359375 20.023438 24.167969 20.28125 25.875 21.097656 C 27.890625 22.070312 29.339844 23.625 30.433594 25.554688 C 31.472656 27.382812 32.058594 29.351562 32.382812 31.417969 C 32.746094 33.765625 32.828125 36.144531 32.617188 38.511719 C 32.332031 41.757812 31.570312 44.867188 29.882812 47.6875 C 28.4375 50.097656 26.441406 51.820312 23.707031 52.585938 C 22.75 52.855469 21.761719 52.996094 20.769531 53 L 7.898438 53.007812 C 7.632812 53.007812 7.59375 52.925781 7.59375 52.683594 C 7.59375 52.441406 7.59375 20.519531 7.59375 20.359375 Z M 13.613281 46.910156 C 13.613281 47.175781 13.667969 47.261719 13.960938 47.261719 L 19.425781 47.261719 C 21.625 47.261719 23.320312 46.324219 24.5 44.464844 C 25.648438 42.660156 26.09375 40.636719 26.308594 38.542969 C 26.472656 36.863281 26.472656 35.167969 26.308594 33.484375 C 26.195312 31.960938 25.851562 30.464844 25.292969 29.046875 C 24.765625 27.675781 23.648438 26.621094 22.257812 26.179688 C 21.417969 25.902344 20.542969 25.765625 19.660156 25.769531 C 17.757812 25.769531 13.957031 25.769531 13.957031 25.769531 C 13.675781 25.769531 13.625 25.851562 13.625 26.121094 Z M 13.613281 46.910156 "/>
<path style=" stroke:none;fill-rule:nonzero;fill:rgb(10.588235%,22.352941%,79.215686%);fill-opacity:1;" d="M 35.988281 18.957031 C 35.976562 17.394531 36.199219 15.84375 36.652344 14.351562 C 37.722656 10.964844 40.023438 8.910156 43.429688 8.09375 C 44.472656 7.847656 45.539062 7.722656 46.609375 7.722656 L 51.375 7.722656 C 51.621094 7.722656 51.671875 7.792969 51.671875 8.027344 C 51.671875 8.15625 51.671875 13.449219 51.671875 13.589844 C 51.671875 13.820312 51.609375 13.882812 51.386719 13.882812 C 49.976562 13.871094 48.570312 13.90625 47.164062 13.867188 C 44.050781 13.789062 42.042969 16.292969 42.046875 19 C 42.046875 19.261719 42.046875 41.546875 42.046875 41.683594 C 42.046875 44.066406 43.484375 46.007812 45.617188 46.609375 C 46.238281 46.753906 46.875 46.816406 47.511719 46.792969 L 51.394531 46.816406 C 51.609375 46.816406 51.664062 46.875 51.664062 47.089844 C 51.660156 47.300781 51.664062 52.496094 51.664062 52.703125 C 51.664062 52.890625 51.632812 52.980469 51.421875 52.96875 C 51.421875 52.96875 47.332031 53.042969 45.292969 52.867188 C 42.941406 52.664062 40.785156 51.941406 39.019531 50.277344 C 37.65625 48.984375 36.875 47.367188 36.425781 45.566406 C 36.117188 44.304688 35.964844 43.007812 35.964844 41.707031 C 35.988281 41.515625 35.988281 19.097656 35.988281 18.957031 Z M 35.988281 18.957031 "/>
<path style=" stroke:none;fill-rule:nonzero;fill:rgb(10.588235%,22.352941%,79.215686%);fill-opacity:1;" d="M 56.34375 20.414062 C 56.34375 20.113281 56.394531 20.007812 56.726562 20.011719 L 62.132812 20.011719 C 62.386719 20.011719 62.449219 20.078125 62.449219 20.332031 L 62.449219 52.601562 C 62.449219 52.890625 62.359375 52.929688 62.109375 52.929688 L 56.675781 52.929688 C 56.402344 52.929688 56.34375 52.859375 56.34375 52.59375 Z M 56.34375 20.414062 "/>
<path style=" stroke:none;fill-rule:nonzero;fill:rgb(10.588235%,22.352941%,79.215686%);fill-opacity:1;" d="M 71.261719 28.726562 L 68.644531 28.726562 L 68.644531 19.992188 L 71.292969 19.992188 C 74.308594 19.992188 76.175781 21.597656 76.175781 24.34375 C 76.171875 26.945312 74.324219 28.726562 71.261719 28.726562 Z M 71.339844 21.707031 L 70.433594 21.707031 L 70.433594 27.027344 L 71.316406 27.027344 C 73.105469 27.027344 74.339844 26.066406 74.339844 24.351562 C 74.339844 22.632812 73.039062 21.699219 71.339844 21.699219 Z M 71.339844 21.707031 "/>
<path style=" stroke:none;fill-rule:nonzero;fill:rgb(10.588235%,22.352941%,79.215686%);fill-opacity:1;" d="M 78.863281 19.613281 C 79.296875 19.609375 79.691406 19.871094 79.863281 20.269531 C 80.03125 20.671875 79.941406 21.136719 79.640625 21.449219 C 79.335938 21.761719 78.875 21.855469 78.472656 21.691406 C 78.070312 21.527344 77.808594 21.132812 77.804688 20.695312 C 77.804688 20.105469 78.277344 19.621094 78.863281 19.613281 Z M 79.746094 22.773438 L 78.015625 22.773438 L 78.015625 28.730469 L 79.746094 28.730469 Z M 79.746094 22.773438 "/>
<path style=" stroke:none;fill-rule:nonzero;fill:rgb(10.588235%,22.352941%,79.215686%);fill-opacity:1;" d="M 83.058594 29.1875 C 83.3125 29.699219 83.742188 30.191406 84.628906 30.191406 C 85.476562 30.191406 86.105469 29.753906 86.105469 28.785156 L 86.105469 27.882812 L 86.085938 27.882812 C 85.671875 28.402344 85.042969 28.695312 84.382812 28.675781 C 82.683594 28.675781 81.539062 27.359375 81.539062 25.691406 C 81.539062 24.183594 82.617188 22.679688 84.320312 22.679688 C 85.003906 22.667969 85.660156 22.96875 86.105469 23.496094 L 86.128906 23.496094 L 86.128906 22.769531 L 87.816406 22.769531 L 87.816406 28.75 C 87.816406 30.65625 86.449219 31.707031 84.640625 31.707031 C 82.90625 31.707031 82.089844 30.925781 81.660156 30 Z M 84.714844 24.230469 C 84.121094 24.222656 83.582031 24.574219 83.351562 25.121094 C 83.117188 25.671875 83.238281 26.304688 83.65625 26.730469 C 84.070312 27.15625 84.699219 27.28125 85.246094 27.054688 C 85.792969 26.828125 86.152344 26.289062 86.148438 25.695312 C 86.160156 25.304688 86.015625 24.925781 85.746094 24.652344 C 85.472656 24.375 85.101562 24.222656 84.714844 24.230469 Z M 84.714844 24.230469 "/>
<path style=" stroke:none;fill-rule:nonzero;fill:rgb(10.588235%,22.352941%,79.215686%);fill-opacity:1;" d="M 90.816406 19.613281 C 91.25 19.609375 91.640625 19.871094 91.8125 20.273438 C 91.980469 20.671875 91.894531 21.136719 91.589844 21.449219 C 91.28125 21.761719 90.824219 21.855469 90.421875 21.691406 C 90.019531 21.523438 89.757812 21.132812 89.757812 20.695312 C 89.753906 20.105469 90.226562 19.621094 90.816406 19.613281 Z M 91.699219 22.773438 L 89.964844 22.773438 L 89.964844 28.730469 L 91.699219 28.730469 Z M 91.699219 22.773438 "/>
<path style=" stroke:none;fill-rule:nonzero;fill:rgb(10.588235%,22.352941%,79.215686%);fill-opacity:1;" d="M 97.480469 28.695312 C 97.222656 28.773438 96.949219 28.8125 96.675781 28.808594 C 95.105469 28.808594 94.335938 27.929688 94.335938 26.5625 L 94.335938 24.28125 L 93.277344 24.28125 L 93.277344 22.777344 L 94.359375 22.777344 L 94.359375 20.90625 L 96.058594 20.90625 L 96.058594 22.769531 L 97.515625 22.769531 L 97.515625 24.277344 L 96.058594 24.277344 L 96.058594 26.351562 C 96.058594 27.054688 96.433594 27.300781 97.082031 27.300781 C 97.21875 27.300781 97.351562 27.285156 97.480469 27.253906 Z M 97.480469 28.695312 "/>
<path style=" stroke:none;fill-rule:nonzero;fill:rgb(10.588235%,22.352941%,79.215686%);fill-opacity:1;" d="M 99.027344 27.066406 L 99.027344 27.042969 C 99.027344 25.570312 100.460938 25.214844 101.652344 25.214844 L 102.238281 25.214844 C 102.359375 25.230469 102.480469 25.191406 102.570312 25.105469 C 102.660156 25.023438 102.707031 24.902344 102.699219 24.78125 C 102.699219 24.398438 102.402344 24.042969 101.75 24.042969 C 101.195312 24.019531 100.679688 24.339844 100.4375 24.84375 L 99.125 24.054688 C 99.601562 23.179688 100.496094 22.636719 101.832031 22.636719 C 103.332031 22.636719 104.386719 23.429688 104.386719 25.035156 L 104.386719 28.722656 L 102.800781 28.722656 L 102.800781 27.992188 L 102.777344 27.980469 C 102.367188 28.546875 101.707031 28.867188 101.011719 28.839844 C 99.945312 28.839844 99.027344 28.167969 99.027344 27.066406 Z M 102.6875 26.417969 L 102.6875 26.285156 L 101.640625 26.285156 C 101.179688 26.285156 100.75 26.496094 100.75 26.964844 C 100.75 27.390625 101.097656 27.566406 101.5 27.566406 C 102.269531 27.566406 102.691406 27.042969 102.691406 26.417969 Z M 102.6875 26.417969 "/>
<path style=" stroke:none;fill-rule:nonzero;fill:rgb(10.588235%,22.352941%,79.215686%);fill-opacity:1;" d="M 106.476562 28.726562 L 106.476562 19.636719 L 108.207031 19.636719 L 108.207031 28.726562 Z M 106.476562 28.726562 "/>
<path style=" stroke:none;fill-rule:nonzero;fill:rgb(10.588235%,22.352941%,79.215686%);fill-opacity:1;" d="M 72.59375 32.144531 C 74.296875 32.144531 75.929688 33.082031 76.515625 34.71875 L 74.882812 35.480469 C 74.535156 34.511719 73.609375 33.875 72.585938 33.902344 C 71.085938 33.902344 69.972656 35.128906 69.972656 36.621094 C 69.972656 38.117188 71.054688 39.378906 72.585938 39.378906 C 73.617188 39.378906 74.542969 38.734375 74.902344 37.761719 L 76.546875 38.53125 C 75.953125 40.179688 74.261719 41.128906 72.5625 41.128906 C 71.378906 41.148438 70.234375 40.683594 69.394531 39.839844 C 68.554688 38.992188 68.09375 37.839844 68.117188 36.644531 C 68.113281 35.449219 68.585938 34.300781 69.425781 33.457031 C 70.269531 32.609375 71.410156 32.136719 72.59375 32.144531 Z M 72.59375 32.144531 "/>
<path style=" stroke:none;fill-rule:nonzero;fill:rgb(10.588235%,22.352941%,79.215686%);fill-opacity:1;" d="M 77.839844 39.351562 L 77.839844 39.328125 C 77.839844 37.855469 79.273438 37.5 80.464844 37.5 L 81.050781 37.5 C 81.171875 37.515625 81.292969 37.476562 81.382812 37.390625 C 81.472656 37.304688 81.523438 37.1875 81.515625 37.0625 C 81.515625 36.683594 81.214844 36.328125 80.5625 36.328125 C 80.007812 36.308594 79.492188 36.621094 79.25 37.128906 L 77.9375 36.335938 C 78.414062 35.460938 79.308594 34.921875 80.640625 34.921875 C 82.144531 34.921875 83.199219 35.714844 83.199219 37.320312 L 83.199219 41.003906 L 81.613281 41.003906 L 81.613281 40.269531 L 81.589844 40.257812 C 81.183594 40.820312 80.519531 41.144531 79.824219 41.113281 C 78.765625 41.125 77.839844 40.457031 77.839844 39.351562 Z M 81.5 38.703125 L 81.5 38.570312 L 80.460938 38.570312 C 80 38.570312 79.570312 38.78125 79.570312 39.25 C 79.570312 39.675781 79.917969 39.851562 80.320312 39.851562 C 81.082031 39.851562 81.503906 39.328125 81.503906 38.703125 Z M 81.5 38.703125 "/>
<path style=" stroke:none;fill-rule:nonzero;fill:rgb(10.588235%,22.352941%,79.215686%);fill-opacity:1;" d="M 89.015625 36.75 C 88.882812 36.730469 88.746094 36.71875 88.609375 36.71875 C 87.429688 36.71875 87.007812 37.511719 87.007812 38.492188 L 87.007812 41.015625 L 85.289062 41.015625 L 85.289062 35.054688 L 86.996094 35.054688 L 86.996094 35.976562 L 87.007812 35.976562 C 87.328125 35.355469 87.976562 34.96875 88.675781 34.996094 C 88.792969 34.996094 88.910156 35.011719 89.023438 35.039062 Z M 89.015625 36.75 "/>
<path style=" stroke:none;fill-rule:nonzero;fill:rgb(10.588235%,22.352941%,79.215686%);fill-opacity:1;" d="M 91.785156 38.515625 C 91.898438 39.261719 92.527344 39.683594 93.246094 39.683594 C 93.773438 39.683594 94.265625 39.414062 94.558594 38.96875 L 95.804688 39.796875 C 95.308594 40.703125 94.457031 41.148438 93.265625 41.148438 C 91.476562 41.148438 90.03125 39.875 90.03125 38.023438 C 90.050781 36.300781 91.4375 34.914062 93.148438 34.910156 C 94.902344 34.910156 96.082031 36.125 96.082031 37.894531 C 96.085938 38.101562 96.078125 38.308594 96.0625 38.519531 Z M 94.367188 37.363281 C 94.335938 36.929688 93.96875 36.328125 93.109375 36.328125 C 92.496094 36.332031 91.964844 36.765625 91.828125 37.363281 Z M 94.367188 37.363281 "/>
<path style=" stroke:none;fill-rule:nonzero;fill:rgb(10.588235%,22.352941%,79.215686%);fill-opacity:1;" d="M 99.257812 38.515625 C 99.367188 39.261719 99.996094 39.683594 100.714844 39.683594 C 101.242188 39.683594 101.738281 39.414062 102.027344 38.96875 L 103.273438 39.796875 C 102.777344 40.703125 101.925781 41.148438 100.738281 41.148438 C 98.949219 41.148438 97.503906 39.875 97.503906 38.023438 C 97.523438 36.300781 98.914062 34.910156 100.625 34.910156 C 102.378906 34.910156 103.558594 36.125 103.558594 37.894531 C 103.5625 38.101562 103.558594 38.308594 103.539062 38.519531 Z M 101.839844 37.363281 C 101.808594 36.929688 101.441406 36.328125 100.582031 36.328125 C 99.96875 36.332031 99.4375 36.765625 99.300781 37.363281 Z M 101.839844 37.363281 "/>
<path style=" stroke:none;fill-rule:nonzero;fill:rgb(10.588235%,22.352941%,79.215686%);fill-opacity:1;" d="M 109.070312 36.75 C 108.933594 36.730469 108.796875 36.71875 108.65625 36.71875 C 107.480469 36.71875 107.058594 37.511719 107.058594 38.492188 L 107.058594 41.015625 L 105.335938 41.015625 L 105.335938 35.054688 L 107.046875 35.054688 L 107.046875 35.976562 L 107.058594 35.976562 C 107.378906 35.355469 108.027344 34.96875 108.726562 34.996094 C 108.84375 34.996094 108.960938 35.011719 109.074219 35.039062 Z M 109.070312 36.75 "/>
<path style=" stroke:none;fill-rule:nonzero;fill:rgb(10.588235%,22.352941%,79.215686%);fill-opacity:1;" d="M 68.644531 52.929688 L 68.644531 44.195312 L 70.433594 44.195312 L 70.433594 52.929688 Z M 68.644531 52.929688 "/>
<path style=" stroke:none;fill-rule:nonzero;fill:rgb(10.588235%,22.352941%,79.215686%);fill-opacity:1;" d="M 76.601562 49.628906 C 76.601562 48.957031 76.28125 48.46875 75.578125 48.46875 C 74.871094 48.46875 74.519531 49.011719 74.519531 49.628906 L 74.519531 52.929688 L 72.792969 52.929688 L 72.792969 46.972656 L 74.507812 46.972656 L 74.507812 47.753906 L 74.519531 47.753906 C 74.96875 46.949219 75.953125 46.863281 76.183594 46.863281 C 77.683594 46.863281 78.3125 48 78.3125 49.226562 L 78.3125 52.929688 L 76.601562 52.929688 Z M 76.601562 49.628906 "/>
<path style=" stroke:none;fill-rule:nonzero;fill:rgb(10.588235%,22.352941%,79.215686%);fill-opacity:1;" d="M 82.484375 53.0625 C 81.105469 53.0625 80.34375 52.515625 79.914062 51.691406 L 81.183594 50.933594 C 81.390625 51.355469 81.855469 51.65625 82.507812 51.65625 C 82.949219 51.65625 83.222656 51.445312 83.222656 51.222656 C 83.222656 51 83.101562 50.820312 82.285156 50.640625 C 81.195312 50.394531 80.195312 49.894531 80.195312 48.710938 C 80.195312 47.574219 81.265625 46.828125 82.460938 46.828125 C 83.585938 46.828125 84.367188 47.332031 84.726562 48.035156 L 83.480469 48.785156 C 83.28125 48.4375 82.957031 48.21875 82.40625 48.21875 C 82.042969 48.21875 81.789062 48.421875 81.789062 48.65625 C 81.789062 48.886719 81.976562 49.078125 82.5625 49.203125 C 83.976562 49.5 84.828125 50.058594 84.828125 51.140625 C 84.832031 52.25 83.964844 53.0625 82.484375 53.0625 Z M 82.484375 53.0625 "/>
<path style=" stroke:none;fill-rule:nonzero;fill:rgb(10.588235%,22.352941%,79.215686%);fill-opacity:1;" d="M 90.128906 52.894531 C 89.871094 52.972656 89.597656 53.011719 89.324219 53.007812 C 87.757812 53.007812 86.984375 52.128906 86.984375 50.765625 L 86.984375 48.484375 L 85.925781 48.484375 L 85.925781 46.976562 L 87.007812 46.976562 L 87.007812 45.101562 L 88.707031 45.101562 L 88.707031 46.964844 L 90.164062 46.964844 L 90.164062 48.472656 L 88.707031 48.472656 L 88.707031 50.546875 C 88.707031 51.25 89.082031 51.492188 89.734375 51.492188 C 89.867188 51.492188 90 51.476562 90.128906 51.449219 Z M 90.128906 52.894531 "/>
<path style=" stroke:none;fill-rule:nonzero;fill:rgb(10.588235%,22.352941%,79.215686%);fill-opacity:1;" d="M 92.855469 43.816406 C 93.289062 43.8125 93.683594 44.070312 93.855469 44.472656 C 94.023438 44.875 93.933594 45.339844 93.632812 45.648438 C 93.328125 45.960938 92.867188 46.054688 92.464844 45.890625 C 92.0625 45.726562 91.800781 45.332031 91.796875 44.898438 C 91.796875 44.304688 92.269531 43.824219 92.855469 43.816406 Z M 93.742188 46.976562 L 92.007812 46.976562 L 92.007812 52.929688 L 93.742188 52.929688 Z M 93.742188 46.976562 "/>
<path style=" stroke:none;fill-rule:nonzero;fill:rgb(10.588235%,22.352941%,79.215686%);fill-opacity:1;" d="M 99.523438 52.894531 C 99.261719 52.972656 98.988281 53.011719 98.71875 53.007812 C 97.148438 53.007812 96.378906 52.128906 96.378906 50.765625 L 96.378906 48.484375 L 95.316406 48.484375 L 95.316406 46.976562 L 96.402344 46.976562 L 96.402344 45.101562 L 98.097656 45.101562 L 98.097656 46.964844 L 99.554688 46.964844 L 99.554688 48.472656 L 98.097656 48.472656 L 98.097656 50.546875 C 98.097656 51.25 98.476562 51.492188 99.125 51.492188 C 99.257812 51.492188 99.390625 51.476562 99.523438 51.449219 Z M 99.523438 52.894531 "/>
<path style=" stroke:none;fill-rule:nonzero;fill:rgb(10.588235%,22.352941%,79.215686%);fill-opacity:1;" d="M 103.066406 50.296875 C 103.066406 50.953125 103.359375 51.433594 104.078125 51.433594 C 104.796875 51.433594 105.140625 50.90625 105.140625 50.296875 L 105.140625 46.972656 L 106.863281 46.972656 L 106.863281 52.929688 L 105.164062 52.929688 L 105.164062 52.195312 L 105.152344 52.195312 C 104.78125 52.742188 104.164062 53.0625 103.507812 53.050781 C 102.035156 53.050781 101.339844 51.9375 101.339844 50.71875 L 101.339844 46.972656 L 103.0625 46.972656 Z M 103.066406 50.296875 "/>
<path style=" stroke:none;fill-rule:nonzero;fill:rgb(10.588235%,22.352941%,79.215686%);fill-opacity:1;" d="M 112.644531 52.894531 C 112.382812 52.972656 112.113281 53.011719 111.835938 53.007812 C 110.269531 53.007812 109.5 52.128906 109.5 50.765625 L 109.5 48.484375 L 108.441406 48.484375 L 108.441406 46.976562 L 109.519531 46.976562 L 109.519531 45.101562 L 111.21875 45.101562 L 111.21875 46.964844 L 112.667969 46.964844 L 112.667969 48.472656 L 111.210938 48.472656 L 111.210938 50.546875 C 111.210938 51.25 111.589844 51.492188 112.238281 51.492188 C 112.371094 51.492188 112.503906 51.476562 112.636719 51.449219 Z M 112.644531 52.894531 "/>
<path style=" stroke:none;fill-rule:nonzero;fill:rgb(10.588235%,22.352941%,79.215686%);fill-opacity:1;" d="M 115.832031 50.429688 C 115.941406 51.175781 116.574219 51.601562 117.289062 51.601562 C 117.816406 51.597656 118.304688 51.332031 118.59375 50.894531 L 119.84375 51.71875 C 119.34375 52.621094 118.496094 53.066406 117.304688 53.066406 C 115.519531 53.066406 114.070312 51.796875 114.070312 49.945312 C 114.085938 48.21875 115.484375 46.824219 117.203125 46.828125 C 118.953125 46.828125 120.136719 48.042969 120.136719 49.8125 C 120.140625 50.019531 120.132812 50.226562 120.113281 50.433594 Z M 118.421875 49.28125 C 118.390625 48.847656 118.023438 48.246094 117.164062 48.246094 C 116.550781 48.25 116.023438 48.679688 115.882812 49.28125 Z M 118.421875 49.28125 "/>
</g>
</svg>
